<svg class="tools" viewBox="0 0 46 54" xmlns="http://www.w3.org/2000/svg">
  <g fill="none"  fill-rule="evenodd">
    <path stroke="#181818" stroke-width="2" d="M23 7L6 16.66v19.3l17 9.66 17-9.66v-19.3z" />
    <path stroke="transparent" fill="transparent" d="M23,7,6,16.66V36l17,9.66L40,36V16.66Zm8,20-5,2.59V30h5v4H15V30h5v-.44L15,27V22l8,4.3L31,22Z" />
    <path stroke="transparent" stroke-width="2" d="M23 1.84L1.5 14.083v24.46L23 50.786l21.5-12.243v-24.46z" />
    <path fill="#181818" fill-rule="nonzero" d="M31 27l-5 2.59V30h5v4H15v-4h5v-.437L15 27v-5l8 4.297L31 22" />
  </g>
</svg>
